<svg width="44" height="45" viewBox="0 0 44 45" fill="none" xmlns="http://www.w3.org/2000/svg">
<path d="M24.1742 23.6453C22.8625 24.8858 21.5173 26.0914 20.2458 27.372C17.1328 30.506 14.0668 33.6856 10.9512 36.8169C10.4201 37.3507 10.0848 37.934 10.0593 38.6515C9.99894 40.3506 9.19421 41.4717 7.66657 42.2133C6.54398 42.7591 5.51125 43.4913 4.43426 44.1323C3.27813 44.8202 2.20382 44.6875 1.23949 43.7514C1.05977 43.5771 0.877367 43.4041 0.704351 43.2217C-0.0748921 42.3997 -0.234496 41.2719 0.361001 40.3117C1.34947 38.7212 2.37282 37.1535 3.39616 35.5845C3.52894 35.382 3.73012 35.2064 3.93533 35.0723C4.17004 34.918 4.43158 34.7652 4.70116 34.7142C6.38572 34.395 7.55257 33.3437 8.69931 32.1475C12.4775 28.2142 16.3214 24.344 20.1385 20.4483C20.2552 20.3303 20.3665 20.2069 20.6321 19.924C20.451 19.8207 20.2458 19.7536 20.1103 19.6169C18.8898 18.3818 18.8737 16.6451 20.0889 15.402C24.4974 10.8907 28.9046 6.37817 33.332 1.88705C35.7797 -0.595206 39.6665 -0.624709 42.1317 1.77574C44.5633 4.14267 44.6437 8.05178 42.2416 10.5381C38.509 14.4002 34.7335 18.2182 30.9755 22.0549C30.3196 22.724 29.6678 23.3972 29.0039 24.0584C27.7043 25.3525 25.9889 25.3685 24.6758 24.0946C24.4733 23.8974 24.3137 23.6547 24.1353 23.4334C24.1474 23.5045 24.1594 23.5756 24.1715 23.6467L24.1742 23.6453ZM42.3798 6.07912C42.3798 4.20167 41.005 2.28265 39.0402 1.7744C37.2403 1.30772 35.6737 1.78915 34.3714 3.11946C30.0527 7.52609 25.734 11.9327 21.4167 16.3407C20.6133 17.1614 20.5435 17.5517 21.3295 18.3885C22.8397 19.995 24.4049 21.5506 25.9768 23.0968C26.4811 23.593 27.2107 23.538 27.7472 23.0445C28.1039 22.716 28.4312 22.3566 28.7705 22.0106C32.8438 17.8547 36.913 13.6962 40.993 9.54703C41.8782 8.6472 42.3905 7.60387 42.3798 6.08046V6.07912ZM21.6648 21.1121C21.5159 21.2958 21.4287 21.4205 21.3241 21.5278C17.381 25.5563 13.4056 29.5539 9.5094 33.6266C8.32645 34.8631 7.06571 35.8112 5.37445 36.1773C5.04719 36.2483 4.7025 36.5541 4.50534 36.8464C3.60539 38.1741 2.75506 39.5366 1.88864 40.887C1.48628 41.5146 1.51981 41.7533 2.07641 42.3273C2.77518 43.0474 3.00989 43.1104 3.66038 42.7229C4.76554 42.0644 5.83582 41.3362 6.97987 40.7556C7.93482 40.2715 8.38278 39.6009 8.46191 38.5402C8.52495 37.7034 8.68053 36.8518 9.32833 36.192C13.3158 32.1367 17.2898 28.0694 21.2799 24.0168C21.8177 23.471 22.4159 22.9855 22.9309 22.5215C22.4467 21.9851 22.09 21.5882 21.6621 21.1134L21.6648 21.1121Z" fill="#E31918"/>
</svg>
